# xmcd
#
# Track frame offsets: 
#        150
#        13451
#        26620
#        40475
#        53870
#        69202
#        83185
#        96538
#        113006
#        126795
#
# Disc length: 1886 seconds
#
# Revision: 0
# Processed by: cddbd v1.5.2PL0 Copyright (c) Steve Scherf et al.
# Submitted via: ExactAudioCopyFreeDBPlugin 1.0
#
DISCID=86075c0a
DTITLE=ก๊อต จักรพรรณ์ อาบครบุรี - มนต์เพลงสุรพล 3
DYEAR=1900
DGENRE=
TTITLE0=รักพี่จงหนีพ่อ
TTITLE1=แน่ข้างเดียว
TTITLE2=หญิงกับเสือ
TTITLE3=สนุ้กเกอร์
TTITLE4=สาวหน้าฝน
TTITLE5=หงษ์ปีกหัก
TTITLE6=วันพระอย่าเว้น
TTITLE7=ใครจะเป็นแฟนผมบ้าง
TTITLE8=หัวใจผมว่าง
TTITLE9=สวยจริงน้อง
EXTD=
EXTT0=
EXTT1=
EXTT2=
EXTT3=
EXTT4=
EXTT5=
EXTT6=
EXTT7=
EXTT8=
EXTT9=
PLAYORDER=
